<svg xmlns="http://www.w3.org/2000/svg" viewBox="0 0 64 64" width="64" height="64">
  <circle cx="32" cy="32" r="32" fill="#F7931A"/>
  <path d="M44.4 31.6c.4-2.6-1.6-4-4.3-4.9l.9-3.5-2.1-.5-.8 3.4c-.6-.1-1.1-.3-1.7-.4l.8-3.4-2.1-.5-.9 3.5c-.5-.1-1-.2-1.4-.3l-2.9-.7-.6 2.3s1.6.4 1.5.4c.8.2 1 .7.9 1.2l-2.3 9.2c-.2.4-.5.9-1.3.7 0 0-1.5-.4-1.5-.4l-1 2.4 2.7.7c.5.1 1 .3 1.5.4l-.9 3.6 2.1.5.9-3.5c.6.2 1.1.3 1.7.5l-.9 3.5 2.1.5.9-3.6c3.6.7 6.3.4 7.4-2.9.9-2.6 0-4.1-1.9-5.1 1.4-.3 2.4-1.2 2.7-3zm-4.8 6.5c-.6 2.6-4.9 1.2-6.3.9l1.1-4.5c1.4.3 5.8 1 5.2 3.6zm.6-6.7c-.6 2.3-4.2 1.2-5.4.9l1-4.1c1.2.3 4.9.9 4.4 3.2z" fill="#FFFFFF"/>
</svg>
