<svg xmlns="http://www.w3.org/2000/svg" viewBox="0 0 64 64" width="64" height="64">
  <path d="M46.3 12.5H17.7c-1.3 0-2.4.9-2.6 2.2L9.6 42.2c-.2 1.5.9 2.8 2.4 2.8h7l1.2-7.4c.1-.6.6-1 1.2-1h4.8c7.1 0 12.7-2.9 14.3-11.2.1-.5.1-1 .1-1.4.7-4.2-2.9-7.5-8.2-7.5" fill="#009CDE"/>
  <path d="M48.9 24.9c-1.7 8.3-7.3 11.2-14.3 11.2h-4.8c-.6 0-1.1.4-1.2 1l-1.2 7.4-1 6c-.1.7.4 1.3 1.1 1.3h6.3c.9 0 1.7-.7 1.9-1.6l.1-.4.7-4.2.1-.4c.2-.9 1-1.6 1.9-1.6h1.2c6 0 10.7-2.4 12.1-9.5.6-2.9.3-5.4-.9-7.2" fill="#012169"/>
  <path d="M19.6 24.8c.1-.5.4-.9.9-1 .2 0 .4-.1.6-.1h8.3c1 0 1.9.1 2.7.2.9.1 1.7.4 2.4.6.4.1.7.3 1 .4.4.2.7.3 1 .5.4-2.3 0-3.9-1.3-5.3-1.4-1.5-4-2.2-7.3-2.2h-11c-1 0-1.8.7-2 1.6L9.6 42.2c-.1.6.4 1.2 1 1.2h7.4l1.6-10.1.3-2.1c0-.1 0-.2.1-.3" fill="#003087"/>
</svg>
