<?xml version="1.0" encoding="UTF-8"?>
<svg xmlns="http://www.w3.org/2000/svg" width="400" height="300" viewBox="0 0 400 300">
  <!-- Фон -->
  <defs>
    <linearGradient id="bg-gradient" x1="0%" y1="0%" x2="100%" y2="100%">
      <stop offset="0%" style="stop-color:#333333;stop-opacity:1" />
      <stop offset="100%" style="stop-color:#666666;stop-opacity:1" />
    </linearGradient>
  </defs>
  
  <!-- Основной фон -->
  <rect width="400" height="300" fill="url(#bg-gradient)" />
  
  <!-- Число 400 -->
  <g transform="translate(50, 150)" fill="#f5f5f5">
    <!-- Цифра 4 -->
    <path d="M 0,0 L 40,0 L 40,-80 L 0,-20 L 80,-20 L 80,0 L 100,0 L 100,-20 L 120,-20 L 120,-40 L 100,-40 L 100,-100 L 80,-100 L 80,-40 L 40,-40 L 40,-100 L 20,-100 L 0,-70 Z" />
    
    <!-- Цифра 0 -->
    <path d="M 150,-50 C 150,-80 170,-100 200,-100 C 230,-100 250,-80 250,-50 C 250,-20 230,0 200,0 C 170,0 150,-20 150,-50 Z M 170,-50 C 170,-30 180,-20 200,-20 C 220,-20 230,-30 230,-50 C 230,-70 220,-80 200,-80 C 180,-80 170,-70 170,-50 Z" />
    
    <!-- Цифра 0 -->
    <path d="M 280,-50 C 280,-80 300,-100 330,-100 C 360,-100 380,-80 380,-50 C 380,-20 360,0 330,0 C 300,0 280,-20 280,-50 Z M 300,-50 C 300,-30 310,-20 330,-20 C 350,-20 360,-30 360,-50 C 360,-70 350,-80 330,-80 C 310,-80 300,-70 300,-50 Z" />
  </g>
  
  <!-- Колеса -->
  <circle cx="100" cy="240" r="30" fill="#333" stroke="#222" stroke-width="5" />
  <circle cx="100" cy="240" r="15" fill="#222" />
  
  <circle cx="300" cy="240" r="30" fill="#333" stroke="#222" stroke-width="5" />
  <circle cx="300" cy="240" r="15" fill="#222" />
</svg>
