<?xml version="1.0" encoding="UTF-8"?>
<svg xmlns="http://www.w3.org/2000/svg" width="1920" height="600" viewBox="0 0 1920 600">
  <!-- Синий фон ночного леса -->
  <defs>
    <linearGradient id="bg-gradient" x1="0%" y1="0%" x2="0%" y2="100%">
      <stop offset="0%" style="stop-color:#0a192f;stop-opacity:1" />
      <stop offset="100%" style="stop-color:#172a45;stop-opacity:1" />
    </linearGradient>
  </defs>
  
  <!-- Фон -->
  <rect width="100%" height="100%" fill="url(#bg-gradient)" />
  
  <!-- Деревья и элементы фона -->
  <g opacity="0.6">
    <path d="M0,400 C100,380 200,420 300,390 C400,360 500,420 600,400 C700,380 800,360 900,390 C1000,420 1100,380 1200,400 C1300,420 1400,390 1500,380 C1600,370 1700,400 1800,390 C1900,380 1920,400 1920,400 L1920,600 L0,600 Z" fill="#0d2538" />
    
    <!-- Стволы деревьев -->
    <path d="M200,0 L220,600 M400,0 L380,600 M700,0 L720,600 M900,0 L880,600 M1200,0 L1220,600 M1500,0 L1480,600 M1700,0 L1720,600" stroke="#0f2d44" stroke-width="15" opacity="0.7" />
    
    <!-- Ветви деревьев -->
    <path d="M100,100 C150,90 180,120 200,100 M300,150 C350,130 380,160 400,150 M600,80 C650,60 680,100 700,80 M800,120 C850,100 880,140 900,120 M1100,90 C1150,70 1180,110 1200,90 M1400,130 C1450,110 1480,150 1500,130 M1600,100 C1650,80 1680,120 1700,100" stroke="#0f2d44" stroke-width="8" opacity="0.7" />
  </g>
  
  <!-- Световые лучи в центре -->
  <g opacity="0.8">
    <rect x="950" y="0" width="20" height="600" fill="#36b5ff" opacity="0.5" />
    <rect x="980" y="0" width="10" height="600" fill="#36b5ff" opacity="0.4" />
    <rect x="930" y="0" width="10" height="600" fill="#36b5ff" opacity="0.4" />
    <rect x="910" y="0" width="5" height="600" fill="#36b5ff" opacity="0.3" />
    <rect x="1000" y="0" width="5" height="600" fill="#36b5ff" opacity="0.3" />
  </g>
  
  <!-- Световые частицы -->
  <g opacity="0.8">
    <circle cx="940" cy="150" r="2" fill="white" />
    <circle cx="960" cy="180" r="1.5" fill="white" />
    <circle cx="975" cy="220" r="2" fill="white" />
    <circle cx="950" cy="250" r="1" fill="white" />
    <circle cx="965" cy="280" r="2" fill="white" />
    <circle cx="940" cy="320" r="1.5" fill="white" />
    <circle cx="975" cy="350" r="1" fill="white" />
    <circle cx="955" cy="400" r="2" fill="white" />
    <circle cx="970" cy="450" r="1.5" fill="white" />
  </g>
  
  <!-- Силуэт джедая (слева) -->
  <path d="M750,400 C750,380 755,350 760,340 C765,330 770,320 775,310 C780,300 785,280 790,270 C795,260 800,250 800,240 C800,230 795,220 790,210 C785,200 780,190 780,180 C780,170 785,160 790,150 C795,140 800,130 810,130 C820,130 830,140 840,150 C850,160 855,170 855,180 C855,190 850,200 845,210 C840,220 835,230 835,240 C835,250 840,260 845,270 C850,280 855,290 860,300 C865,310 870,320 875,330 C880,340 885,350 885,370 L885,400" fill="#000000" />
  
  <!-- Световой меч джедая -->
  <rect x="830" y="200" width="5" height="150" fill="#36b5ff" />
  <rect x="828" y="195" width="9" height="10" fill="#36b5ff" />
  <rect x="830" y="350" width="5" height="20" fill="#666666" />
  
  <!-- Силуэт ситха (справа) -->
  <path d="M1170,400 C1170,380 1165,350 1160,340 C1155,330 1150,320 1145,310 C1140,300 1135,280 1130,270 C1125,260 1120,250 1120,240 C1120,230 1125,220 1130,210 C1135,200 1140,190 1140,180 C1140,170 1135,160 1130,150 C1125,140 1120,130 1110,130 C1100,130 1090,140 1080,150 C1070,160 1065,170 1065,180 C1065,190 1070,200 1075,210 C1080,220 1085,230 1085,240 C1085,250 1080,260 1075,270 C1070,280 1065,290 1060,300 C1055,310 1050,320 1045,330 C1040,340 1035,350 1035,370 L1035,400" fill="#000000" />
  
  <!-- Красный световой меч ситха -->
  <rect x="1085" y="200" width="5" height="150" fill="#ff3636" />
  <rect x="1083" y="195" width="9" height="10" fill="#ff3636" />
  <rect x="1085" y="350" width="5" height="20" fill="#666666" />
  
  <!-- Накидка ситха -->
  <path d="M1050,280 C1060,290 1070,300 1080,310 C1090,320 1100,330 1110,350 C1120,370 1125,390 1125,400" fill="none" stroke="#ff3636" stroke-width="3" opacity="0.7" />
</svg>
